<svg xmlns="http://www.w3.org/2000/svg" viewBox="0 0 800 560" width="800" height="560" role="img">

<rect width="800" height="560" fill="#F3E8FF"/><circle cx="400" cy="280" r="230" fill="#FAF2FF"/><path d="M40 74 Q400 150 760 74" stroke="#BA68C8" stroke-width="4" fill="none"/><path d="M22 74 L58 74 L40 116 Z" fill="#C2185B" opacity="0.9"/><path d="M102 100 L138 100 L120 142 Z" fill="#FFB300" opacity="0.9"/><path d="M182 123 L218 123 L200 165 Z" fill="#B2DFDB" opacity="0.9"/><path d="M262 140 L298 140 L280 182 Z" fill="#CE93D8" opacity="0.9"/><path d="M342 149 L378 149 L360 191 Z" fill="#7CB342" opacity="0.9"/><path d="M422 149 L458 149 L440 191 Z" fill="#C2185B" opacity="0.9"/><path d="M502 140 L538 140 L520 182 Z" fill="#FFB300" opacity="0.9"/><path d="M582 123 L618 123 L600 165 Z" fill="#B2DFDB" opacity="0.9"/><path d="M662 100 L698 100 L680 142 Z" fill="#CE93D8" opacity="0.9"/><path d="M742 74 L778 74 L760 116 Z" fill="#7CB342" opacity="0.9"/><rect x="90" y="466" width="620" height="24" rx="12" fill="#E4CDB4"/><rect x="210" y="380" width="176" height="86" rx="8" fill="#FFFFFF" stroke="#6D4C41" stroke-opacity="0.16" stroke-width="2"/><path d="M210 376 Q210 366 224 366 H372 Q386 366 386 376 V394 q -22.0 14 -44.0 0 q -22.0 14 -44.0 0 q -22.0 14 -44.0 0 q -22.0 14 -44.0 0  Z" fill="#F8BBD0"/><circle cx="228" cy="432" r="5" fill="#F8BBD0" opacity="0.8"/><circle cx="252" cy="432" r="5" fill="#F8BBD0" opacity="0.8"/><circle cx="276" cy="432" r="5" fill="#F8BBD0" opacity="0.8"/><circle cx="300" cy="432" r="5" fill="#F8BBD0" opacity="0.8"/><circle cx="324" cy="432" r="5" fill="#F8BBD0" opacity="0.8"/><circle cx="348" cy="432" r="5" fill="#F8BBD0" opacity="0.8"/><circle cx="372" cy="432" r="5" fill="#F8BBD0" opacity="0.8"/><rect x="230" y="300" width="136" height="80" rx="8" fill="#FFFFFF" stroke="#6D4C41" stroke-opacity="0.16" stroke-width="2"/><path d="M230 296 Q230 286 244 286 H352 Q366 286 366 296 V314 q -17.0 14 -34.0 0 q -17.0 14 -34.0 0 q -17.0 14 -34.0 0 q -17.0 14 -34.0 0  Z" fill="#F8BBD0"/><circle cx="248" cy="352" r="5" fill="#F8BBD0" opacity="0.8"/><circle cx="272" cy="352" r="5" fill="#F8BBD0" opacity="0.8"/><circle cx="296" cy="352" r="5" fill="#F8BBD0" opacity="0.8"/><circle cx="320" cy="352" r="5" fill="#F8BBD0" opacity="0.8"/><circle cx="344" cy="352" r="5" fill="#F8BBD0" opacity="0.8"/><rect x="250" y="232" width="96" height="68" rx="8" fill="#FFFFFF" stroke="#6D4C41" stroke-opacity="0.16" stroke-width="2"/><path d="M250 228 Q250 218 264 218 H332 Q346 218 346 228 V246 q -12.0 14 -24.0 0 q -12.0 14 -24.0 0 q -12.0 14 -24.0 0 q -12.0 14 -24.0 0  Z" fill="#F8BBD0"/><circle cx="268" cy="284" r="5" fill="#F8BBD0" opacity="0.8"/><circle cx="292" cy="284" r="5" fill="#F8BBD0" opacity="0.8"/><circle cx="316" cy="284" r="5" fill="#F8BBD0" opacity="0.8"/><ellipse cx="298" cy="466" rx="120" ry="14" fill="#F3E7DB"/><g transform="translate(298 200) scale(2.1)"><path d="M0 6 C-14 -8 -22 -18 -12 -26 C-5 -31 0 -25 0 -21 C0 -25 5 -31 12 -26 C22 -18 14 -8 0 6 Z" fill="#C2185B"/></g><g transform="translate(600 466) scale(0.62) translate(-150 -308)"><ellipse cx="150" cy="300" rx="88" ry="12" fill="#6D4C41" opacity="0.1"/><clipPath id="cpPapel"><path d="M78 196 H222 L206 292 Q204 300 196 300 H104 Q96 300 94 292 Z"/></clipPath><path d="M78 196 H222 L206 292 Q204 300 196 300 H104 Q96 300 94 292 Z" fill="#F8BBD0"/><g clip-path="url(#cpPapel)"><rect x="80" y="190" width="8" height="120" fill="#000" opacity="0.09"/><rect x="98" y="190" width="8" height="120" fill="#000" opacity="0.09"/><rect x="116" y="190" width="8" height="120" fill="#000" opacity="0.09"/><rect x="134" y="190" width="8" height="120" fill="#000" opacity="0.09"/><rect x="152" y="190" width="8" height="120" fill="#000" opacity="0.09"/><rect x="170" y="190" width="8" height="120" fill="#000" opacity="0.09"/><rect x="188" y="190" width="8" height="120" fill="#000" opacity="0.09"/><rect x="206" y="190" width="8" height="120" fill="#000" opacity="0.09"/><rect x="224" y="190" width="8" height="120" fill="#000" opacity="0.09"/></g><path d="M78 196 H222 L206 292 Q204 300 196 300 H104 Q96 300 94 292 Z" fill="none" stroke="#6D4C41" stroke-opacity="0.2" stroke-width="2"/><rect x="74" y="186" width="152" height="16" rx="8" fill="#F8BBD0"/><rect x="74" y="186" width="152" height="16" rx="8" fill="#fff" opacity="0.18"/><path d="M84 194 q-6 -34 26 -44 q-4 -32 32 -36 q6 -26 34 -20 q30 6 26 34 q26 8 20 34 q-2 22 -26 32 Z" fill="#F06292"/><path d="M96 190 q-2 -26 24 -34" stroke="#fff" stroke-opacity="0.45" stroke-width="7" fill="none" stroke-linecap="round"/><path d="M132 122 q10 -14 30 -10" stroke="#fff" stroke-opacity="0.4" stroke-width="6" fill="none" stroke-linecap="round"/><path d="M84 194 q-6 -34 26 -44 q-4 -32 32 -36 q6 -26 34 -20 q30 6 26 34 q26 8 20 34 q-2 22 -26 32 Z" fill="none" stroke="#6D4C41" stroke-opacity="0.14" stroke-width="2"/><rect x="98" y="173.5" width="12" height="5" rx="2.5" fill="#FFFFFF" transform="rotate(0 104 176)"/><rect x="122" y="157.5" width="12" height="5" rx="2.5" fill="#FFF3E0" transform="rotate(47 128 160)"/><rect x="146" y="175.5" width="12" height="5" rx="2.5" fill="#7CB342" transform="rotate(94 152 178)"/><rect x="170" y="153.5" width="12" height="5" rx="2.5" fill="#FFFFFF" transform="rotate(141 176 156)"/><rect x="190" y="169.5" width="12" height="5" rx="2.5" fill="#FFF3E0" transform="rotate(8 196 172)"/><rect x="134" y="129.5" width="12" height="5" rx="2.5" fill="#7CB342" transform="rotate(55 140 132)"/><rect x="162" y="119.5" width="12" height="5" rx="2.5" fill="#FFFFFF" transform="rotate(102 168 122)"/><rect x="108" y="145.5" width="12" height="5" rx="2.5" fill="#FFF3E0" transform="rotate(149 114 148)"/><rect x="180" y="137.5" width="12" height="5" rx="2.5" fill="#7CB342" transform="rotate(16 186 140)"/></g><g transform="translate(700 466) scale(0.5) translate(-150 -308)"><ellipse cx="150" cy="300" rx="88" ry="12" fill="#6D4C41" opacity="0.1"/><clipPath id="cpPapel"><path d="M78 196 H222 L206 292 Q204 300 196 300 H104 Q96 300 94 292 Z"/></clipPath><path d="M78 196 H222 L206 292 Q204 300 196 300 H104 Q96 300 94 292 Z" fill="#F48FB1"/><g clip-path="url(#cpPapel)"><rect x="80" y="190" width="8" height="120" fill="#000" opacity="0.09"/><rect x="98" y="190" width="8" height="120" fill="#000" opacity="0.09"/><rect x="116" y="190" width="8" height="120" fill="#000" opacity="0.09"/><rect x="134" y="190" width="8" height="120" fill="#000" opacity="0.09"/><rect x="152" y="190" width="8" height="120" fill="#000" opacity="0.09"/><rect x="170" y="190" width="8" height="120" fill="#000" opacity="0.09"/><rect x="188" y="190" width="8" height="120" fill="#000" opacity="0.09"/><rect x="206" y="190" width="8" height="120" fill="#000" opacity="0.09"/><rect x="224" y="190" width="8" height="120" fill="#000" opacity="0.09"/></g><path d="M78 196 H222 L206 292 Q204 300 196 300 H104 Q96 300 94 292 Z" fill="none" stroke="#6D4C41" stroke-opacity="0.2" stroke-width="2"/><rect x="74" y="186" width="152" height="16" rx="8" fill="#F48FB1"/><rect x="74" y="186" width="152" height="16" rx="8" fill="#fff" opacity="0.18"/><path d="M84 194 q-6 -34 26 -44 q-4 -32 32 -36 q6 -26 34 -20 q30 6 26 34 q26 8 20 34 q-2 22 -26 32 Z" fill="#FFF6E6"/><path d="M96 190 q-2 -26 24 -34" stroke="#fff" stroke-opacity="0.45" stroke-width="7" fill="none" stroke-linecap="round"/><path d="M132 122 q10 -14 30 -10" stroke="#fff" stroke-opacity="0.4" stroke-width="6" fill="none" stroke-linecap="round"/><path d="M84 194 q-6 -34 26 -44 q-4 -32 32 -36 q6 -26 34 -20 q30 6 26 34 q26 8 20 34 q-2 22 -26 32 Z" fill="none" stroke="#6D4C41" stroke-opacity="0.14" stroke-width="2"/><rect x="98" y="173.5" width="12" height="5" rx="2.5" fill="#C2185B" transform="rotate(0 104 176)"/><rect x="122" y="157.5" width="12" height="5" rx="2.5" fill="#B2DFDB" transform="rotate(47 128 160)"/><rect x="146" y="175.5" width="12" height="5" rx="2.5" fill="#FFB300" transform="rotate(94 152 178)"/><rect x="170" y="153.5" width="12" height="5" rx="2.5" fill="#C2185B" transform="rotate(141 176 156)"/><rect x="190" y="169.5" width="12" height="5" rx="2.5" fill="#B2DFDB" transform="rotate(8 196 172)"/><rect x="134" y="129.5" width="12" height="5" rx="2.5" fill="#FFB300" transform="rotate(55 140 132)"/><rect x="162" y="119.5" width="12" height="5" rx="2.5" fill="#C2185B" transform="rotate(102 168 122)"/><rect x="108" y="145.5" width="12" height="5" rx="2.5" fill="#B2DFDB" transform="rotate(149 114 148)"/><rect x="180" y="137.5" width="12" height="5" rx="2.5" fill="#FFB300" transform="rotate(16 186 140)"/><path d="M150 62 q6 -14 18 -18" stroke="#7CB342" stroke-width="4" fill="none" stroke-linecap="round"/><circle cx="150" cy="68" r="15" fill="#E53935"/><circle cx="144" cy="63" r="5" fill="#fff" opacity="0.5"/></g><ellipse cx="120" cy="200" rx="34" ry="42" fill="#E8608F" opacity="0.9"/><ellipse cx="110" cy="186" rx="9" ry="13" fill="#fff" opacity="0.4"/><path d="M120 242 q10 40 -6 80" stroke="#6D4C41" stroke-opacity="0.4" stroke-width="3" fill="none"/><ellipse cx="168" cy="250" rx="34" ry="42" fill="#FFB300" opacity="0.9"/><ellipse cx="158" cy="236" rx="9" ry="13" fill="#fff" opacity="0.4"/><path d="M168 292 q10 40 -6 80" stroke="#6D4C41" stroke-opacity="0.4" stroke-width="3" fill="none"/><ellipse cx="690" cy="190" rx="34" ry="42" fill="#B2DFDB" opacity="0.9"/><ellipse cx="680" cy="176" rx="9" ry="13" fill="#fff" opacity="0.4"/><path d="M690 232 q10 40 -6 80" stroke="#6D4C41" stroke-opacity="0.4" stroke-width="3" fill="none"/>
</svg>
